<svg width="32" height="32" viewBox="0 0 32 32" fill="none" xmlns="http://www.w3.org/2000/svg">
<path d="M16.569 2.55151C17.6492 2.31948 19.1294 2.47158 19.8095 2.70299C19.8751 2.72532 19.9463 2.75122 20.0215 2.77992C21.1567 3.21306 21.6315 4.55165 21.154 5.6689L21.1146 5.76123C21.0124 6.00025 20.7304 6.1037 20.4962 5.99101C20.1131 5.80674 19.5964 5.568 19.2648 5.4548C18.7702 5.28592 17.9685 5.18476 17.5133 5.25096C17.0582 5.31716 16.6142 5.47311 16.2241 5.8776C15.8485 6.28208 15.5885 6.78769 15.444 7.39441L15.2792 8.12137C15.2313 8.33274 15.3915 8.53408 15.6083 8.53481L18.6292 8.545C19.8632 8.54916 20.7679 9.70728 20.4733 10.9056C20.4313 11.0765 20.2778 11.1963 20.1019 11.1957L14.9142 11.1782C14.705 11.1775 14.5228 11.3205 14.4738 11.5238L13.3638 16.1269C12.8727 18.1927 12.3382 19.7962 11.7604 20.9374C11.6016 21.2549 11.4385 21.5484 11.271 21.818C10.5361 23.0007 9.07909 23.3403 7.70064 23.1434C7.40868 23.1017 7.2885 22.7311 7.47674 22.5041C7.66331 22.2791 7.84162 22.0313 8.01166 21.7608C8.32947 21.2552 8.61116 20.7207 8.85674 20.1573C9.11677 19.5939 9.33345 19.0233 9.5068 18.4455C9.6946 17.8532 9.84628 17.3043 9.96185 16.7987L12.2154 7.35108C12.5765 5.81982 13.3044 4.46401 14.1125 3.77585C14.9207 3.08769 15.4888 2.78353 16.569 2.55151Z" fill="url(#paint0_linear_1517_3632)"/>
<path d="M16.569 2.55151C17.6492 2.31948 19.1294 2.47158 19.8095 2.70299C19.8751 2.72532 19.9463 2.75122 20.0215 2.77992C21.1567 3.21306 21.6315 4.55165 21.154 5.6689L21.1146 5.76123C21.0124 6.00025 20.7304 6.1037 20.4962 5.99101C20.1131 5.80674 19.5964 5.568 19.2648 5.4548C18.7702 5.28592 17.9685 5.18476 17.5133 5.25096C17.0582 5.31716 16.6142 5.47311 16.2241 5.8776C15.8485 6.28208 15.5885 6.78769 15.444 7.39441L15.2792 8.12137C15.2313 8.33274 15.3915 8.53408 15.6083 8.53481L18.6292 8.545C19.8632 8.54916 20.7679 9.70728 20.4733 10.9056C20.4313 11.0765 20.2778 11.1963 20.1019 11.1957L14.9142 11.1782C14.705 11.1775 14.5228 11.3205 14.4738 11.5238L13.3638 16.1269C12.8727 18.1927 12.3382 19.7962 11.7604 20.9374C11.6016 21.2549 11.4385 21.5484 11.271 21.818C10.5361 23.0007 9.07909 23.3403 7.70064 23.1434C7.40868 23.1017 7.2885 22.7311 7.47674 22.5041C7.66331 22.2791 7.84162 22.0313 8.01166 21.7608C8.32947 21.2552 8.61116 20.7207 8.85674 20.1573C9.11677 19.5939 9.33345 19.0233 9.5068 18.4455C9.6946 17.8532 9.84628 17.3043 9.96185 16.7987L12.2154 7.35108C12.5765 5.81982 13.3044 4.46401 14.1125 3.77585C14.9207 3.08769 15.4888 2.78353 16.569 2.55151Z" fill="url(#paint1_linear_1517_3632)"/>
<path d="M16.569 2.55151C17.6492 2.31948 19.1294 2.47158 19.8095 2.70299C19.8751 2.72532 19.9463 2.75122 20.0215 2.77992C21.1567 3.21306 21.6315 4.55165 21.154 5.6689L21.1146 5.76123C21.0124 6.00025 20.7304 6.1037 20.4962 5.99101C20.1131 5.80674 19.5964 5.568 19.2648 5.4548C18.7702 5.28592 17.9685 5.18476 17.5133 5.25096C17.0582 5.31716 16.6142 5.47311 16.2241 5.8776C15.8485 6.28208 15.5885 6.78769 15.444 7.39441L15.2792 8.12137C15.2313 8.33274 15.3915 8.53408 15.6083 8.53481L18.6292 8.545C19.8632 8.54916 20.7679 9.70728 20.4733 10.9056C20.4313 11.0765 20.2778 11.1963 20.1019 11.1957L14.9142 11.1782C14.705 11.1775 14.5228 11.3205 14.4738 11.5238L13.3638 16.1269C12.8727 18.1927 12.3382 19.7962 11.7604 20.9374C11.6016 21.2549 11.4385 21.5484 11.271 21.818C10.5361 23.0007 9.07909 23.3403 7.70064 23.1434C7.40868 23.1017 7.2885 22.7311 7.47674 22.5041C7.66331 22.2791 7.84162 22.0313 8.01166 21.7608C8.32947 21.2552 8.61116 20.7207 8.85674 20.1573C9.11677 19.5939 9.33345 19.0233 9.5068 18.4455C9.6946 17.8532 9.84628 17.3043 9.96185 16.7987L12.2154 7.35108C12.5765 5.81982 13.3044 4.46401 14.1125 3.77585C14.9207 3.08769 15.4888 2.78353 16.569 2.55151Z" fill="white" fill-opacity="0.5" style="mix-blend-mode:overlay"/>
<path d="M16.569 2.55151C17.6492 2.31948 19.1294 2.47158 19.8095 2.70299C19.8751 2.72532 19.9463 2.75122 20.0215 2.77992C21.1567 3.21306 21.6315 4.55165 21.154 5.6689L21.1146 5.76123C21.0124 6.00025 20.7304 6.1037 20.4962 5.99101C20.1131 5.80674 19.5964 5.568 19.2648 5.4548C18.7702 5.28592 17.9685 5.18476 17.5133 5.25096C17.0582 5.31716 16.6142 5.47311 16.2241 5.8776C15.8485 6.28208 15.5885 6.78769 15.444 7.39441L15.2792 8.12137C15.2313 8.33274 15.3915 8.53408 15.6083 8.53481L18.6292 8.545C19.8632 8.54916 20.7679 9.70728 20.4733 10.9056C20.4313 11.0765 20.2778 11.1963 20.1019 11.1957L14.9142 11.1782C14.705 11.1775 14.5228 11.3205 14.4738 11.5238L13.3638 16.1269C12.8727 18.1927 12.3382 19.7962 11.7604 20.9374C11.6016 21.2549 11.4385 21.5484 11.271 21.818C10.5361 23.0007 9.07909 23.3403 7.70064 23.1434C7.40868 23.1017 7.2885 22.7311 7.47674 22.5041C7.66331 22.2791 7.84162 22.0313 8.01166 21.7608C8.32947 21.2552 8.61116 20.7207 8.85674 20.1573C9.11677 19.5939 9.33345 19.0233 9.5068 18.4455C9.6946 17.8532 9.84628 17.3043 9.96185 16.7987L12.2154 7.35108C12.5765 5.81982 13.3044 4.46401 14.1125 3.77585C14.9207 3.08769 15.4888 2.78353 16.569 2.55151Z" fill="white"/>
<path d="M22.1397 26.5714C22.4212 26.5712 22.6286 26.8346 22.5623 27.1082C22.2318 28.4715 21.0116 29.4318 19.6089 29.4326L13.8643 29.4362C13.5723 29.4364 13.357 29.1635 13.425 28.8796L16.8057 14.7664C16.8543 14.5633 17.0359 14.4201 17.2447 14.4201H17.4042C18.8644 14.4201 19.9403 15.7856 19.5987 17.2053L17.4779 26.0186C17.4095 26.3028 17.625 26.576 17.9172 26.5757L22.1397 26.5714Z" fill="url(#paint2_linear_1517_3632)"/>
<path d="M22.1397 26.5714C22.4212 26.5712 22.6286 26.8346 22.5623 27.1082C22.2318 28.4715 21.0116 29.4318 19.6089 29.4326L13.8643 29.4362C13.5723 29.4364 13.357 29.1635 13.425 28.8796L16.8057 14.7664C16.8543 14.5633 17.0359 14.4201 17.2447 14.4201H17.4042C18.8644 14.4201 19.9403 15.7856 19.5987 17.2053L17.4779 26.0186C17.4095 26.3028 17.625 26.576 17.9172 26.5757L22.1397 26.5714Z" fill="url(#paint3_linear_1517_3632)"/>
<path d="M22.1397 26.5714C22.4212 26.5712 22.6286 26.8346 22.5623 27.1082C22.2318 28.4715 21.0116 29.4318 19.6089 29.4326L13.8643 29.4362C13.5723 29.4364 13.357 29.1635 13.425 28.8796L16.8057 14.7664C16.8543 14.5633 17.0359 14.4201 17.2447 14.4201H17.4042C18.8644 14.4201 19.9403 15.7856 19.5987 17.2053L17.4779 26.0186C17.4095 26.3028 17.625 26.576 17.9172 26.5757L22.1397 26.5714Z" fill="white" fill-opacity="0.5" style="mix-blend-mode:overlay"/>
<path d="M22.1397 26.5714C22.4212 26.5712 22.6286 26.8346 22.5623 27.1082C22.2318 28.4715 21.0116 29.4318 19.6089 29.4326L13.8643 29.4362C13.5723 29.4364 13.357 29.1635 13.425 28.8796L16.8057 14.7664C16.8543 14.5633 17.0359 14.4201 17.2447 14.4201H17.4042C18.8644 14.4201 19.9403 15.7856 19.5987 17.2053L17.4779 26.0186C17.4095 26.3028 17.625 26.576 17.9172 26.5757L22.1397 26.5714Z" fill="white"/>
<defs>
<linearGradient id="paint0_linear_1517_3632" x1="12.8339" y1="15.3162" x2="26.196" y2="27.695" gradientUnits="userSpaceOnUse">
<stop stop-color="#90C2DC"/>
<stop offset="1" stop-color="#112437"/>
</linearGradient>
<linearGradient id="paint1_linear_1517_3632" x1="12.8339" y1="15.3162" x2="26.196" y2="27.695" gradientUnits="userSpaceOnUse">
<stop stop-color="#8AC4E2"/>
<stop offset="1" stop-color="#112437"/>
</linearGradient>
<linearGradient id="paint2_linear_1517_3632" x1="12.8339" y1="15.3162" x2="26.196" y2="27.695" gradientUnits="userSpaceOnUse">
<stop stop-color="#90C2DC"/>
<stop offset="1" stop-color="#112437"/>
</linearGradient>
<linearGradient id="paint3_linear_1517_3632" x1="12.8339" y1="15.3162" x2="26.196" y2="27.695" gradientUnits="userSpaceOnUse">
<stop stop-color="#8AC4E2"/>
<stop offset="1" stop-color="#112437"/>
</linearGradient>
</defs>
</svg>
